<?xml version="1.0" encoding="UTF-8" standalone="no"?>
<!-- Created with Inkscape (http://www.inkscape.org/) -->

<svg
   xmlns:dc="http://purl.org/dc/elements/1.1/"
   xmlns:cc="http://creativecommons.org/ns#"
   xmlns:rdf="http://www.w3.org/1999/02/22-rdf-syntax-ns#"
   xmlns:svg="http://www.w3.org/2000/svg"
   xmlns="http://www.w3.org/2000/svg"
   xmlns:sodipodi="http://sodipodi.sourceforge.net/DTD/sodipodi-0.dtd"
   xmlns:inkscape="http://www.inkscape.org/namespaces/inkscape"
   width="744.09448819"
   height="1052.3622047"
   id="svg2"
   version="1.1"
   inkscape:version="0.48.4 r9939"
   inkscape:export-filename="/home/jules/stuff/mode-infinity/finalpic/foo.png"
   inkscape:export-xdpi="150"
   inkscape:export-ydpi="150"
   sodipodi:docname="New document 1">
  <defs
     id="defs4" />
  <sodipodi:namedview
     id="base"
     pagecolor="#ffffff"
     bordercolor="#666666"
     borderopacity="1.0"
     inkscape:pageopacity="0.0"
     inkscape:pageshadow="2"
     inkscape:zoom="0.35"
     inkscape:cx="405.13326"
     inkscape:cy="443.91071"
     inkscape:document-units="px"
     inkscape:current-layer="layer1"
     showgrid="false"
     inkscape:window-width="901"
     inkscape:window-height="710"
     inkscape:window-x="173"
     inkscape:window-y="123"
     inkscape:window-maximized="0" />
  <metadata
     id="metadata7">
    <rdf:RDF>
      <cc:Work
         rdf:about="">
        <dc:format>image/svg+xml</dc:format>
        <dc:type
           rdf:resource="http://purl.org/dc/dcmitype/StillImage" />
        <dc:title></dc:title>
      </cc:Work>
    </rdf:RDF>
  </metadata>
  <g
     inkscape:label="Layer 1"
     inkscape:groupmode="layer"
     id="layer1">
    <g
       style="font-size:15px;font-style:normal;font-weight:normal;line-height:125%;letter-spacing:0px;word-spacing:0px;fill:#aa0000;fill-opacity:1;stroke:none;font-family:Sans"
       id="text2985-6"
       transform="matrix(209.18658,0,0,187.55714,-78041.39,-111927.96)">
      <path
         d="m 375.40494,601.23462 c -0.15138,-0.17578 -0.34669,-0.46875 -0.58594,-0.87891 -0.32715,0.58594 -0.63477,1.00831 -0.92285,1.26709 -0.36133,0.3125 -0.82276,0.46875 -1.38428,0.46875 -0.65918,0 -1.20606,-0.24658 -1.64062,-0.73974 -0.45899,-0.51758 -0.68848,-1.20361 -0.68848,-2.05811 0,-0.82031 0.22949,-1.50878 0.68848,-2.06543 0.41015,-0.49316 0.96191,-0.73974 1.65527,-0.73974 0.35644,0 0.6665,0.0732 0.93018,0.21972 0.30761,0.16114 0.5664,0.38087 0.77636,0.65918 0.19531,0.24903 0.39062,0.542 0.58594,0.87891 0.32714,-0.58593 0.63476,-1.0083 0.92285,-1.26709 0.36132,-0.31249 0.82275,-0.46874 1.38428,-0.46875 0.65917,10e-6 1.20604,0.24659 1.64062,0.73974 0.45898,0.51759 0.68847,1.20362 0.68848,2.05811 -10e-6,0.82032 -0.2295,1.50879 -0.68848,2.06543 -0.41016,0.49317 -0.96192,0.73975 -1.65527,0.73975 -0.35645,0 -0.66651,-0.0732 -0.93018,-0.21973 -0.26367,-0.13184 -0.52246,-0.35156 -0.77636,-0.65918 m -2.97364,-0.10254 c 0.80566,0 1.45019,-0.58593 1.9336,-1.75781 -0.62012,-1.27929 -1.26465,-1.91894 -1.9336,-1.91895 -0.48828,10e-6 -0.85693,0.17579 -1.10595,0.52735 -0.26856,0.37598 -0.40284,0.81299 -0.40283,1.31103 -1e-5,0.54688 0.13427,0.98877 0.40283,1.32568 0.27343,0.3418 0.64208,0.5127 1.10595,0.5127 m 4.7754,-3.66211 c -0.72755,10e-6 -1.37208,0.58594 -1.9336,1.75781 0.61523,1.2793 1.25976,1.91895 1.9336,1.91895 0.48827,0 0.85692,-0.17578 1.10595,-0.52735 0.26855,-0.37597 0.40282,-0.81298 0.40283,-1.31103 -1e-5,-0.54687 -0.13428,-0.98876 -0.40283,-1.32568 -0.27344,-0.34179 -0.6421,-0.51269 -1.10595,-0.5127"
         id="path2992-0"
         inkscape:connector-curvature="0"
         style="fill:#aa0000" />
    </g>
    <g
       style="font-size:15px;font-style:normal;font-weight:normal;line-height:125%;letter-spacing:0px;word-spacing:0px;fill:#ff6600;fill-opacity:1;stroke:none;font-family:Sans"
       id="text2985"
       transform="matrix(182.07095,0,0,161.14444,-67875.061,-96103.105)">
      <path
         d="m 375.40494,601.23462 c -0.15138,-0.17578 -0.34669,-0.46875 -0.58594,-0.87891 -0.32715,0.58594 -0.63477,1.00831 -0.92285,1.26709 -0.36133,0.3125 -0.82276,0.46875 -1.38428,0.46875 -0.65918,0 -1.20606,-0.24658 -1.64062,-0.73974 -0.45899,-0.51758 -0.68848,-1.20361 -0.68848,-2.05811 0,-0.82031 0.22949,-1.50878 0.68848,-2.06543 0.41015,-0.49316 0.96191,-0.73974 1.65527,-0.73974 0.35644,0 0.6665,0.0732 0.93018,0.21972 0.30761,0.16114 0.5664,0.38087 0.77636,0.65918 0.19531,0.24903 0.39062,0.542 0.58594,0.87891 0.32714,-0.58593 0.63476,-1.0083 0.92285,-1.26709 0.36132,-0.31249 0.82275,-0.46874 1.38428,-0.46875 0.65917,10e-6 1.20604,0.24659 1.64062,0.73974 0.45898,0.51759 0.68847,1.20362 0.68848,2.05811 -10e-6,0.82032 -0.2295,1.50879 -0.68848,2.06543 -0.41016,0.49317 -0.96192,0.73975 -1.65527,0.73975 -0.35645,0 -0.66651,-0.0732 -0.93018,-0.21973 -0.26367,-0.13184 -0.52246,-0.35156 -0.77636,-0.65918 m -2.97364,-0.10254 c 0.80566,0 1.45019,-0.58593 1.9336,-1.75781 -0.62012,-1.27929 -1.26465,-1.91894 -1.9336,-1.91895 -0.48828,10e-6 -0.85693,0.17579 -1.10595,0.52735 -0.26856,0.37598 -0.40284,0.81299 -0.40283,1.31103 -1e-5,0.54688 0.13427,0.98877 0.40283,1.32568 0.27343,0.3418 0.64208,0.5127 1.10595,0.5127 m 4.7754,-3.66211 c -0.72755,10e-6 -1.37208,0.58594 -1.9336,1.75781 0.61523,1.2793 1.25976,1.91895 1.9336,1.91895 0.48827,0 0.85692,-0.17578 1.10595,-0.52735 0.26855,-0.37597 0.40282,-0.81298 0.40283,-1.31103 -1e-5,-0.54687 -0.13428,-0.98876 -0.40283,-1.32568 -0.27344,-0.34179 -0.6421,-0.51269 -1.10595,-0.5127"
         id="path2992"
         inkscape:connector-curvature="0"
         style="fill:#ff6600" />
    </g>
    <g
       style="font-size:15px;font-style:normal;font-weight:normal;line-height:125%;letter-spacing:0px;word-spacing:0px;fill:#000000;fill-opacity:1;stroke:none;font-family:Sans"
       id="text2985-4"
       transform="matrix(117.36321,0,0,95.620634,-43829.96,-56973.183)">
      <g
         style="font-size:15px;font-style:normal;font-weight:normal;line-height:125%;letter-spacing:0px;word-spacing:0px;fill:#ffcc00;fill-opacity:1;stroke:none;font-family:Sans"
         id="text2985-8-4"
         transform="matrix(1.3360586,0,0,1.4408958,-124.1353,-262.7502)">
        <path
           d="m 375.40494,601.23462 c -0.15138,-0.17578 -0.34669,-0.46875 -0.58594,-0.87891 -0.32715,0.58594 -0.63477,1.00831 -0.92285,1.26709 -0.36133,0.3125 -0.82276,0.46875 -1.38428,0.46875 -0.65918,0 -1.20606,-0.24658 -1.64062,-0.73974 -0.45899,-0.51758 -0.68848,-1.20361 -0.68848,-2.05811 0,-0.82031 0.22949,-1.50878 0.68848,-2.06543 0.41015,-0.49316 0.96191,-0.73974 1.65527,-0.73974 0.35644,0 0.6665,0.0732 0.93018,0.21972 0.30761,0.16114 0.5664,0.38087 0.77636,0.65918 0.19531,0.24903 0.39062,0.542 0.58594,0.87891 0.32714,-0.58593 0.63476,-1.0083 0.92285,-1.26709 0.36132,-0.31249 0.82275,-0.46874 1.38428,-0.46875 0.65917,10e-6 1.20604,0.24659 1.64062,0.73974 0.45898,0.51759 0.68847,1.20362 0.68848,2.05811 -10e-6,0.82032 -0.2295,1.50879 -0.68848,2.06543 -0.41016,0.49317 -0.96192,0.73975 -1.65527,0.73975 -0.35645,0 -0.66651,-0.0732 -0.93018,-0.21973 -0.26367,-0.13184 -0.52246,-0.35156 -0.77636,-0.65918 m -2.97364,-0.10254 c 0.80566,0 1.45019,-0.58593 1.9336,-1.75781 -0.62012,-1.27929 -1.26465,-1.91894 -1.9336,-1.91895 -0.48828,10e-6 -0.85693,0.17579 -1.10595,0.52735 -0.26856,0.37598 -0.40284,0.81299 -0.40283,1.31103 -1e-5,0.54688 0.13427,0.98877 0.40283,1.32568 0.27343,0.3418 0.64208,0.5127 1.10595,0.5127 m 4.7754,-3.66211 c -0.72755,10e-6 -1.37208,0.58594 -1.9336,1.75781 0.61523,1.2793 1.25976,1.91895 1.9336,1.91895 0.48827,0 0.85692,-0.17578 1.10595,-0.52735 0.26855,-0.37597 0.40282,-0.81298 0.40283,-1.31103 -1e-5,-0.54687 -0.13428,-0.98876 -0.40283,-1.32568 -0.27344,-0.34179 -0.6421,-0.51269 -1.10595,-0.5127"
           id="path2992-4-6"
           inkscape:connector-curvature="0"
           style="fill:#ffcc00" />
      </g>
      <g
         style="font-size:15px;font-style:normal;font-weight:normal;line-height:125%;letter-spacing:0px;word-spacing:0px;fill:#ffff00;fill-opacity:1;stroke:none;font-family:Sans"
         id="text2985-8-8"
         transform="matrix(1.1496511,0,0,1.1965439,-54.229722,-116.39953)">
        <path
           d="m 375.40494,601.23462 c -0.15138,-0.17578 -0.34669,-0.46875 -0.58594,-0.87891 -0.32715,0.58594 -0.63477,1.00831 -0.92285,1.26709 -0.36133,0.3125 -0.82276,0.46875 -1.38428,0.46875 -0.65918,0 -1.20606,-0.24658 -1.64062,-0.73974 -0.45899,-0.51758 -0.68848,-1.20361 -0.68848,-2.05811 0,-0.82031 0.22949,-1.50878 0.68848,-2.06543 0.41015,-0.49316 0.96191,-0.73974 1.65527,-0.73974 0.35644,0 0.6665,0.0732 0.93018,0.21972 0.30761,0.16114 0.5664,0.38087 0.77636,0.65918 0.19531,0.24903 0.39062,0.542 0.58594,0.87891 0.32714,-0.58593 0.63476,-1.0083 0.92285,-1.26709 0.36132,-0.31249 0.82275,-0.46874 1.38428,-0.46875 0.65917,10e-6 1.20604,0.24659 1.64062,0.73974 0.45898,0.51759 0.68847,1.20362 0.68848,2.05811 -10e-6,0.82032 -0.2295,1.50879 -0.68848,2.06543 -0.41016,0.49317 -0.96192,0.73975 -1.65527,0.73975 -0.35645,0 -0.66651,-0.0732 -0.93018,-0.21973 -0.26367,-0.13184 -0.52246,-0.35156 -0.77636,-0.65918 m -2.97364,-0.10254 c 0.80566,0 1.45019,-0.58593 1.9336,-1.75781 -0.62012,-1.27929 -1.26465,-1.91894 -1.9336,-1.91895 -0.48828,10e-6 -0.85693,0.17579 -1.10595,0.52735 -0.26856,0.37598 -0.40284,0.81299 -0.40283,1.31103 -1e-5,0.54688 0.13427,0.98877 0.40283,1.32568 0.27343,0.3418 0.64208,0.5127 1.10595,0.5127 m 4.7754,-3.66211 c -0.72755,10e-6 -1.37208,0.58594 -1.9336,1.75781 0.61523,1.2793 1.25976,1.91895 1.9336,1.91895 0.48827,0 0.85692,-0.17578 1.10595,-0.52735 0.26855,-0.37597 0.40282,-0.81298 0.40283,-1.31103 -1e-5,-0.54687 -0.13428,-0.98876 -0.40283,-1.32568 -0.27344,-0.34179 -0.6421,-0.51269 -1.10595,-0.5127"
           id="path2992-4-3"
           inkscape:connector-curvature="0"
           style="fill:#ffff00" />
      </g>
      <g
         id="g3291">
        <g
           transform="translate(1.8501745,1.2848455)"
           id="text2985-8"
           style="font-size:15px;font-style:normal;font-weight:normal;line-height:125%;letter-spacing:0px;word-spacing:0px;fill:#ffffff;fill-opacity:1;stroke:none;font-family:Sans">
          <path
             style="fill:#ffffff"
             inkscape:connector-curvature="0"
             id="path2992-4"
             d="m 375.40494,601.23462 c -0.15138,-0.17578 -0.34669,-0.46875 -0.58594,-0.87891 -0.32715,0.58594 -0.63477,1.00831 -0.92285,1.26709 -0.36133,0.3125 -0.82276,0.46875 -1.38428,0.46875 -0.65918,0 -1.20606,-0.24658 -1.64062,-0.73974 -0.45899,-0.51758 -0.68848,-1.20361 -0.68848,-2.05811 0,-0.82031 0.22949,-1.50878 0.68848,-2.06543 0.41015,-0.49316 0.96191,-0.73974 1.65527,-0.73974 0.35644,0 0.6665,0.0732 0.93018,0.21972 0.30761,0.16114 0.5664,0.38087 0.77636,0.65918 0.19531,0.24903 0.39062,0.542 0.58594,0.87891 0.32714,-0.58593 0.63476,-1.0083 0.92285,-1.26709 0.36132,-0.31249 0.82275,-0.46874 1.38428,-0.46875 0.65917,10e-6 1.20604,0.24659 1.64062,0.73974 0.45898,0.51759 0.68847,1.20362 0.68848,2.05811 -10e-6,0.82032 -0.2295,1.50879 -0.68848,2.06543 -0.41016,0.49317 -0.96192,0.73975 -1.65527,0.73975 -0.35645,0 -0.66651,-0.0732 -0.93018,-0.21973 -0.26367,-0.13184 -0.52246,-0.35156 -0.77636,-0.65918 m -2.97364,-0.10254 c 0.80566,0 1.45019,-0.58593 1.9336,-1.75781 -0.62012,-1.27929 -1.26465,-1.91894 -1.9336,-1.91895 -0.48828,10e-6 -0.85693,0.17579 -1.10595,0.52735 -0.26856,0.37598 -0.40284,0.81299 -0.40283,1.31103 -1e-5,0.54688 0.13427,0.98877 0.40283,1.32568 0.27343,0.3418 0.64208,0.5127 1.10595,0.5127 m 4.7754,-3.66211 c -0.72755,10e-6 -1.37208,0.58594 -1.9336,1.75781 0.61523,1.2793 1.25976,1.91895 1.9336,1.91895 0.48827,0 0.85692,-0.17578 1.10595,-0.52735 0.26855,-0.37597 0.40282,-0.81298 0.40283,-1.31103 -1e-5,-0.54687 -0.13428,-0.98876 -0.40283,-1.32568 -0.27344,-0.34179 -0.6421,-0.51269 -1.10595,-0.5127" />
        </g>
      </g>
    </g>
  </g>
</svg>
